# xmcd
# 
# Track frame offsets:
#     150
#     30507
#     53732
#     82932
#     131010
#     154055
#     184887
#     216707
# 
# Disc length: 3135
# 
# Revision: 5
# Processed by: cddbd v1.5.2PL0 Copyright (c) Steve Scherf et al.
# Submitted via: fre:ac v1.0.31
# 
DISCID=6a0c3d08
DTITLE=David Sanborn - Straight To The Heart
DYEAR=1984
DGENRE=Jazz
TTITLE0=Hideaway
TTITLE1=Straight To The Heart
TTITLE2=Run For Cover
TTITLE3=Smile
TTITLE4=Lisa
TTITLE5=Love and Happiness
TTITLE6=Lotus Blossom
TTITLE7=One Hundred Ways
EXTD=\n   Genre: Jazz\n   Style: Post Bop, Smooth Jazz, Contemporary Jazz\n      \n   Details and Credits - Straight To The Heart\n      \n   Product Details:\n\n    Backing Vocals – Frank Floyd, Lani Groves, Vivian Cherry\n    Bass, Synthesizer, Backing Vo
EXTD=cals – Marcus Miller\n    Drums, Backing Vocals – Buddy Williams\n    Guitar, Backing Vocals – Hiram Bullock\n    Horns – Jon Faddis (tracks: B4), \n    Michael Brecker (tracks: B4), Randy Brecker (tracks: B4]\n    Keyboards – Don Grolnick\n    Percu
EXTD=ssion – "Crusher" Bennett* (tracks: A2), \n    Michael White (tracks: B2), Ralph MacDonald (tracks: A3, B4]\n    Producer – Marcus Miller\n    Saxophone – David Sanborn\n\n      Format: CD, Album\n      Release Date: 1984\n      Label: Warner Bros. R
EXTD=ecords\n      Catalog No.: 7599-25150-2\n\n   Tracklist:
EXTT0=
EXTT1=
EXTT2=
EXTT3=
EXTT4=
EXTT5=
EXTT6=
EXTT7=
PLAYORDER=
